<?xml version="1.0" encoding="UTF-8" standalone="no"?>
<!DOCTYPE svg PUBLIC "-//W3C//DTD SVG 1.1//EN" "http://www.w3.org/Graphics/SVG/1.1/DTD/svg11.dtd">
<svg width="175.00" height="209.00" viewBox="0.00 0.00 175.00 209.00" xmlns="http://www.w3.org/2000/svg" xmlns:xlink="http://www.w3.org/1999/xlink" id="clover">
<g stroke-linecap="round">
<path d="M87.25,125.75 C87.59,126.09 87.32,132.09 86.75,136.72 C86.07,142.09 83.87,151.12 82.25,155.25 C80.58,159.42 76.27,166.77 73.43,170.28 C71.05,173.20 65.65,178.89 63.50,180.75 C59.50,184.16 54.28,186.51 51.64,187.60 C48.64,189.03 44.31,192.95 43.75,195.25 C43.45,196.70 43.97,199.95 44.75,201.25 C45.37,202.22 48.06,204.59 49.00,205.00 C51.11,205.84 55.53,204.31 59.74,202.03 C63.70,199.84 68.85,196.19 71.75,193.25 C74.00,190.94 78.46,184.90 80.37,181.57 C84.24,174.75 88.59,161.03 91.09,149.01 C91.42,147.43 92.00,144.68 92.25,143.50 C93.85,146.07 99.00,154.41 100.39,156.39 C103.14,160.26 108.66,165.42 111.72,166.62 C112.69,166.98 120.35,168.79 123.25,169.25 C126.66,169.75 131.97,168.90 135.38,167.53 C139.17,165.97 145.67,162.97 148.43,161.32 C151.93,159.21 157.19,154.71 159.51,151.68 C161.47,149.08 165.33,141.65 166.25,139.00 C167.51,135.27 168.73,127.33 168.73,123.22 C168.68,119.36 166.19,112.23 163.76,109.10 C161.51,106.28 155.89,101.76 153.58,100.28 C147.71,96.58 132.89,91.93 122.09,89.36 C118.81,88.58 114.38,87.52 113.25,87.25 C123.70,86.10 134.33,84.47 140.96,82.24 C144.49,81.03 150.10,78.40 153.11,76.51 C155.80,74.79 161.04,70.43 163.24,67.54 C165.57,64.43 168.72,57.57 169.17,53.92 C169.60,49.89 168.35,42.74 166.88,39.41 C165.39,36.11 161.98,30.30 159.78,27.34 C157.59,24.45 152.30,19.19 149.32,16.77 C146.57,14.57 140.55,10.51 137.53,9.14 C134.50,7.79 127.91,6.27 125.50,6.25 C122.09,6.26 113.74,8.33 110.75,9.75 C107.48,11.36 101.65,16.10 99.00,20.25 C96.38,24.45 91.02,40.12 89.93,47.46 C89.43,50.90 88.92,59.53 88.75,62.50 C87.26,56.01 83.59,40.60 80.85,33.86 C79.38,30.28 76.10,23.93 74.34,21.24 C72.34,18.24 68.01,13.56 65.26,11.88 C63.16,10.62 56.35,8.05 52.72,7.62 C48.84,7.20 41.25,7.80 37.84,8.83 C33.86,10.08 28.08,12.83 25.00,15.25 C22.73,17.07 17.36,22.92 14.81,26.30 C12.09,29.94 8.87,35.54 7.57,39.09 C6.55,41.95 5.14,48.77 5.09,51.88 C5.08,55.71 6.19,61.22 8.00,64.25 C9.38,66.48 14.75,72.07 17.85,74.52 C21.04,77.01 27.31,80.42 30.88,81.47 C34.99,82.66 53.98,86.14 61.50,87.50 C50.49,89.14 40.04,91.45 31.99,94.47 C28.02,95.98 21.43,99.10 19.25,100.50 C15.61,102.88 11.26,107.58 9.49,110.81 C7.87,113.87 5.90,121.49 5.49,125.53 C5.09,130.03 6.10,136.37 8.05,139.63 C10.53,143.69 22.15,157.92 26.64,161.44 C29.82,163.90 35.18,166.93 38.75,168.00 C41.39,168.77 49.27,169.78 52.80,169.79 C56.85,169.76 62.82,168.28 65.54,166.03 C67.32,164.51 73.01,158.12 74.35,156.28 C76.45,153.36 79.34,146.61 81.46,140.59 C86.17,126.78 87.00,125.60 87.25,125.75 Z" fill="none" stroke="rgb(0, 0, 0)" stroke-width="2.00" stroke-opacity="1.00" stroke-linejoin="miter"/>
<path d="M88.75,84.75 C98.92,73.80 120.82,50.65 132.54,38.46 C140.11,31.07 146.34,25.73 153.00,21.25" fill="none" stroke="rgb(0, 0, 0)" stroke-width="2.00" stroke-opacity="1.00" stroke-linejoin="miter"/>
<path d="M88.50,84.50 C93.13,88.43 104.78,98.41 111.80,104.44 C119.54,111.45 131.32,123.54 135.63,129.81 C146.22,145.36 149.10,156.07 149.75,160.00" fill="none" stroke="rgb(0, 0, 0)" stroke-width="2.00" stroke-opacity="1.00" stroke-linejoin="miter"/>
<path d="M89.25,84.00 C85.27,79.14 74.58,66.14 69.94,61.10 C64.03,54.72 53.49,45.56 47.09,41.36 C38.96,36.07 17.53,25.51 16.50,25.00" fill="none" stroke="rgb(0, 0, 0)" stroke-width="2.00" stroke-opacity="1.00" stroke-linejoin="miter"/>
<path d="M19.75,154.25 C23.69,149.74 34.41,137.50 39.91,131.87 C49.11,122.70 79.71,94.98 86.52,87.51 C87.38,86.57 88.87,84.94 89.50,84.25" fill="none" stroke="rgb(0, 0, 0)" stroke-width="2.00" stroke-opacity="1.00" stroke-linejoin="miter"/>
<path d="M94.25,40.25 L93.50,48.25" fill="none" stroke="rgb(0, 0, 0)" stroke-width="1.00" stroke-opacity="1.00" stroke-linejoin="round"/>
<path d="M99.75,44.75 L98.25,51.00" fill="none" stroke="rgb(0, 0, 0)" stroke-width="1.00" stroke-opacity="1.00" stroke-linejoin="round"/>
<path d="M106.50,49.25 L103.75,52.75" fill="none" stroke="rgb(0, 0, 0)" stroke-width="1.00" stroke-opacity="1.00" stroke-linejoin="round"/>
<path d="M116.25,63.75 L122.50,60.25" fill="none" stroke="rgb(0, 0, 0)" stroke-width="1.00" stroke-opacity="1.00" stroke-linejoin="round"/>
<path d="M120.00,68.75 L128.00,67.25" fill="none" stroke="rgb(0, 0, 0)" stroke-width="1.00" stroke-opacity="1.00" stroke-linejoin="round"/>
<path d="M123.75,75.25 L130.00,74.50" fill="none" stroke="rgb(0, 0, 0)" stroke-width="1.00" stroke-opacity="1.00" stroke-linejoin="round"/>
<path d="M125.50,96.50 L135.75,100.50" fill="none" stroke="rgb(0, 0, 0)" stroke-width="1.00" stroke-opacity="1.00" stroke-linejoin="round"/>
<path d="M124.00,102.50 L130.25,105.75" fill="none" stroke="rgb(0, 0, 0)" stroke-width="1.00" stroke-opacity="1.00" stroke-linejoin="round"/>
<path d="M123.75,107.00 L131.75,116.50" fill="none" stroke="rgb(0, 0, 0)" stroke-width="1.00" stroke-opacity="1.00" stroke-linejoin="round"/>
<path d="M116.25,119.25 L121.75,126.50" fill="none" stroke="rgb(0, 0, 0)" stroke-width="1.00" stroke-opacity="1.00" stroke-linejoin="round"/>
<path d="M110.00,122.50 L113.00,128.50" fill="none" stroke="rgb(0, 0, 0)" stroke-width="1.00" stroke-opacity="1.00" stroke-linejoin="round"/>
<path d="M97.75,124.25 L102.25,138.75" fill="none" stroke="rgb(0, 0, 0)" stroke-width="1.00" stroke-opacity="1.00" stroke-linejoin="round"/>
<path d="M74.75,128.75 L67.75,137.75" fill="none" stroke="rgb(0, 0, 0)" stroke-width="1.00" stroke-opacity="1.00" stroke-linejoin="round"/>
<path d="M65.00,127.00 L59.50,132.75" fill="none" stroke="rgb(0, 0, 0)" stroke-width="1.00" stroke-opacity="1.00" stroke-linejoin="round"/>
<path d="M59.50,124.50 L55.25,129.75" fill="none" stroke="rgb(0, 0, 0)" stroke-width="1.00" stroke-opacity="1.00" stroke-linejoin="round"/>
<path d="M52.25,110.25 L44.25,116.25" fill="none" stroke="rgb(0, 0, 0)" stroke-width="1.00" stroke-opacity="1.00" stroke-linejoin="round"/>
<path d="M50.50,103.00 L41.25,107.00" fill="none" stroke="rgb(0, 0, 0)" stroke-width="1.00" stroke-opacity="1.00" stroke-linejoin="round"/>
<path d="M45.50,99.00 L37.25,101.50" fill="none" stroke="rgb(0, 0, 0)" stroke-width="1.00" stroke-opacity="1.00" stroke-linejoin="round"/>
<path d="M46.75,76.75 L36.50,74.00" fill="none" stroke="rgb(0, 0, 0)" stroke-width="1.00" stroke-opacity="1.00" stroke-linejoin="round"/>
<path d="M47.25,70.00 L40.50,66.25" fill="none" stroke="rgb(0, 0, 0)" stroke-width="1.00" stroke-opacity="1.00" stroke-linejoin="round"/>
<path d="M53.50,61.50 L42.75,56.75" fill="none" stroke="rgb(0, 0, 0)" stroke-width="1.00" stroke-opacity="1.00" stroke-linejoin="round"/>
<path d="M65.00,47.75 L61.25,41.50" fill="none" stroke="rgb(0, 0, 0)" stroke-width="1.00" stroke-opacity="1.00" stroke-linejoin="round"/>
<path d="M69.75,45.75 L67.25,37.75" fill="none" stroke="rgb(0, 0, 0)" stroke-width="1.00" stroke-opacity="1.00" stroke-linejoin="round"/>
<path d="M74.50,42.25 L74.00,36.75" fill="none" stroke="rgb(0, 0, 0)" stroke-width="1.00" stroke-opacity="1.00" stroke-linejoin="round"/>
</g>
</svg>
